<svg xmlns="http://www.w3.org/2000/svg" viewBox="0 0 328.13 328.13"><defs><style>.cls-1,.cls-7{fill:#2bd6b9;}.cls-1{stroke:#000;stroke-width:0.25px;}.cls-1,.cls-4,.cls-6{stroke-miterlimit:10;}.cls-2{fill:#94ffea;}.cls-3{fill:#60b5cc;}.cls-4{fill:#069;stroke-width:9px;}.cls-4,.cls-6{stroke:#1a7e99;}.cls-5,.cls-6{fill:#115466;}.cls-6{stroke-width:7px;}</style></defs><title>icon-safeschool</title><g id="logo-safeschool"><g id="fundo-2" data-name="fundo"><circle id="externo" class="cls-1" cx="164.06" cy="164.06" r="163.94"/><circle id="interno" class="cls-2" cx="164.06" cy="164.06" r="158.19"/></g><g id="virus"><polygon id="hastes-externas" class="cls-3" points="166.61 296.76 49.38 230.35 48.27 95.61 164.41 27.29 281.64 93.7 282.74 228.44 166.61 296.76"/><g id="hastes-internas"><line class="cls-4" x1="164.31" y1="27.29" x2="166.52" y2="296.76"/><line class="cls-4" x1="48.37" y1="95.5" x2="282.65" y2="228.44"/><line class="cls-4" x1="281.41" y1="93.63" x2="49.28" y2="230.35"/></g><g id="circulos"><circle class="cls-5" cx="279.84" cy="228.96" r="15.89"/><circle class="cls-5" cx="48.1" cy="96.77" r="24.03"/><circle class="cls-5" cx="164.09" cy="293.72" r="23.95"/><circle class="cls-5" cx="48.1" cy="229.52" r="12.55"/><circle class="cls-5" cx="164.54" cy="27.46" r="17"/><circle class="cls-5" cx="279.84" cy="93.19" r="24.22"/></g><path id="nucleo" class="cls-6" d="M183.28,422.63l61.86-35.72a20.36,20.36,0,0,0,10.19-17.64V297.85a20.38,20.38,0,0,0-10.19-17.64l-61.86-35.72a20.36,20.36,0,0,0-20.37,0l-61.85,35.72a20.36,20.36,0,0,0-10.19,17.64v71.42a20.34,20.34,0,0,0,10.19,17.64l61.85,35.72A20.36,20.36,0,0,0,183.28,422.63Z" transform="translate(-7.59 -171.54)"/></g><g id="SafeSchool"><path class="cls-2" d="M129.08,345.25c1.58,6.94,6.56,10,14.56,10S155,352.08,155,347c0-5.62-3.34-8.06-15.15-10.81-18.81-4.42-23.46-11.26-23.46-20.59,0-12,9-20.22,25.37-20.22,18.35,0,25.66,9.86,26.65,20H153.38c-.72-4.25-3.07-8.87-12-8.87-6.07,0-9.73,2.5-9.73,7.41s2.94,6.75,14.1,9.34c20.1,4.74,24.51,12.22,24.51,22,0,12.62-9.55,21.27-27.81,21.27-17.55,0-26.78-8.63-28.44-21.23Z" transform="translate(-7.59 -171.54)"/><path class="cls-7" d="M188.52,345.25c1.58,6.94,6.56,10,14.56,10s11.38-3.15,11.38-8.21c0-5.62-3.33-8.06-15.15-10.81-18.8-4.42-23.45-11.26-23.45-20.59,0-12,9-20.22,25.37-20.22,18.35,0,25.65,9.86,26.65,20H212.82c-.72-4.25-3.07-8.87-12-8.87-6.07,0-9.73,2.5-9.73,7.41s2.94,6.75,14.1,9.34c20.1,4.74,24.51,12.22,24.51,22,0,12.62-9.55,21.27-27.82,21.27-17.54,0-26.77-8.63-28.43-21.23Z" transform="translate(-7.59 -171.54)"/></g></g></svg>