<?xml version="1.0" standalone="no"?>
<!DOCTYPE svg PUBLIC "-//W3C//DTD SVG 20010904//EN"
 "http://www.w3.org/TR/2001/REC-SVG-20010904/DTD/svg10.dtd">
<svg version="1.0" xmlns="http://www.w3.org/2000/svg"
 width="640.000000pt" height="1280.000000pt" viewBox="0 0 640.000000 1280.000000"
 preserveAspectRatio="xMidYMid meet">
<g transform="translate(0.000000,1280.000000) scale(0.100000,-0.100000)"
fill="#000000" stroke="none">
<path d="M3015 12774 c-250 -51 -451 -167 -607 -351 -386 -455 -307 -1146 173
-1503 422 -314 1019 -260 1378 125 453 487 339 1264 -237 1604 -99 59 -202 96
-342 125 -151 32 -210 31 -365 0z"/>
<path d="M2138 10530 c-199 -34 -386 -169 -470 -340 -22 -44 -130 -364 -262
-780 -123 -388 -345 -1081 -491 -1540 -519 -1624 -563 -1766 -570 -1822 -17
-139 52 -291 167 -368 86 -57 152 -75 278 -75 101 0 108 1 168 34 71 39 144
113 183 187 21 38 513 1701 827 2792 35 123 51 148 77 121 12 -12 92 -496 175
-1059 24 -162 23 -289 -5 -422 -8 -42 -277 -908 -596 -1925 -639 -2034 -608
-1920 -560 -2028 28 -63 81 -119 146 -153 l50 -27 457 -5 456 -5 25 -23 c14
-13 28 -34 31 -45 3 -12 50 -350 106 -752 288 -2089 274 -1995 305 -2062 46
-104 140 -180 267 -217 82 -23 514 -23 596 0 127 37 221 113 267 217 31 68 14
-46 271 1812 74 539 137 990 140 1002 3 11 17 32 31 45 l25 23 456 5 457 5 50
27 c65 34 118 90 146 153 48 108 79 -6 -560 2029 -320 1017 -589 1886 -598
1930 -12 55 -17 125 -17 216 0 120 10 198 88 690 55 347 92 560 101 569 26 27
42 2 77 -121 314 -1092 806 -2754 827 -2792 39 -74 112 -148 183 -187 60 -33
67 -34 168 -34 126 0 192 18 278 75 82 55 135 135 157 236 29 128 75 -33 -518
1824 -124 388 -345 1081 -492 1540 -160 502 -280 865 -303 910 -71 143 -217
265 -387 322 l-70 23 -1045 1 c-575 1 -1066 -2 -1092 -6z"/>
</g>
</svg>
