<svg xmlns="http://www.w3.org/2000/svg" viewBox="0 0 711.42 307"><defs><style>.cls-1{fill:#60b5cc;}.cls-2{fill:#069;stroke-width:9px;}.cls-2,.cls-4{stroke:#1a7e99;}.cls-2,.cls-4,.cls-5,.cls-6{stroke-miterlimit:10;}.cls-3,.cls-4,.cls-6{fill:#115466;}.cls-4{stroke-width:7px;}.cls-5{fill:#1a7d99;}.cls-5,.cls-6{stroke:#000;stroke-width:0.25px;}.cls-7{fill:#94ffea;}.cls-8{fill:#2bd6b9;}</style></defs><title>logo-safeschool-lateral-tst1</title><g id="logo-safeschool"><g id="virus"><polygon id="hastes-externas" class="cls-1" points="142.2 286.3 24.97 219.88 23.86 85.15 140 16.82 257.23 83.24 258.33 217.97 142.2 286.3"/><g id="hastes-internas"><line class="cls-2" x1="139.5" y1="17" x2="141.71" y2="286"/><line class="cls-2" x1="23.96" y1="85.04" x2="258.24" y2="217.97"/><line class="cls-2" x1="257" y1="83.16" x2="24.87" y2="219.88"/></g><g id="circulos"><circle class="cls-3" cx="255" cy="218" r="16"/><circle class="cls-3" cx="24" cy="86" r="24"/><circle class="cls-3" cx="140" cy="283" r="24"/><circle class="cls-3" cx="23.5" cy="219.5" r="12.5"/><circle class="cls-3" cx="140" cy="17" r="17"/><circle class="cls-3" cx="255" cy="83" r="24"/></g><path id="nucleo" class="cls-4" d="M188,417.13l61.86-35.72A20.36,20.36,0,0,0,260,363.77V292.35a20.37,20.37,0,0,0-10.18-17.64L188,239a20.36,20.36,0,0,0-20.37,0l-61.86,35.72a20.37,20.37,0,0,0-10.18,17.64v71.42a20.36,20.36,0,0,0,10.18,17.64l61.86,35.72A20.36,20.36,0,0,0,188,417.13Z" transform="translate(-36.71 -176.5)"/></g><path class="cls-5" d="M371.67,294c2.17,9.52,9,13.7,20,13.7s15.63-4.33,15.63-11.27c0-7.72-4.57-11.06-20.79-14.84-25.8-6-32.18-15.44-32.18-28.24,0-16.53,12.36-27.75,34.81-27.75,25.17,0,35.2,13.53,36.56,27.4H405c-1-5.84-4.22-12.17-16.44-12.17-8.32,0-13.34,3.43-13.34,10.17,0,6.59,4,9.27,19.34,12.82,27.58,6.5,33.63,16.76,33.63,30.12,0,17.32-13.1,29.2-38.16,29.2-24.07,0-36.75-11.85-39-29.14Z" transform="translate(-36.71 -176.5)"/><path class="cls-5" d="M495,303.27c0,6.9.54,17,.95,18.73H477.38a29.24,29.24,0,0,1-1-7.06c-2.62,4.06-7.53,8.73-20.3,8.73-17.4,0-24.74-11.44-24.74-22.64,0-16.44,13.2-24,34.37-24H476v-4.63c0-5.15-1.8-10.22-10.83-10.22-8.23,0-10,3.6-10.92,8.85H435.73c1-12.88,8.78-23.31,30.17-23.19,18.85.13,29.1,7.71,29.1,25ZM476,289h-8.1c-12,0-16.43,3.66-16.43,10.59,0,5.2,3.19,9.58,10.34,9.58,12.64,0,14.19-8.79,14.19-18.28Z" transform="translate(-36.71 -176.5)"/><path class="cls-5" d="M507,322V265H497V250h10v-6.31c0-14.84,7.33-24.55,22.8-24.55a40.42,40.42,0,0,1,9.2.85v16a24.63,24.63,0,0,0-4.11-.34c-5.74,0-7.89,2.12-7.89,9.63V250h13v15H527v57Z" transform="translate(-36.71 -176.5)"/><path class="cls-5" d="M558.77,290c0,8.9,4.47,17.6,14.28,17.6,8.2,0,10.54-3.3,12.41-7.6h19.72c-2.52,8.71-10.29,23-32.65,23-23.43,0-33.6-17.52-33.6-36.19,0-22.32,11.45-38.26,34.31-38.26,24.43,0,32.74,17.68,32.74,35.44a43.49,43.49,0,0,1-.26,6Zm27.61-12c-.14-8.36-3.48-15.4-13.17-15.4-9.53,0-13.36,6.57-14.16,15.4Z" transform="translate(-36.71 -176.5)"/><path class="cls-6" d="M371.67,403c2.17,9.52,9,13.7,20,13.7s15.63-4.33,15.63-11.27c0-7.72-4.57-11.06-20.79-14.84-25.8-6.06-32.18-15.44-32.18-28.24,0-16.53,12.36-27.75,34.81-27.75,25.17,0,35.2,13.53,36.56,27.4H405c-1-5.84-4.22-12.17-16.44-12.17-8.32,0-13.34,3.44-13.34,10.17s4,9.27,19.34,12.82c27.58,6.5,33.63,16.76,33.63,30.12,0,17.32-13.1,29.2-38.16,29.2-24.07,0-36.75-11.85-39-29.14Z" transform="translate(-36.71 -176.5)"/><path class="cls-6" d="M499.26,408c-2.5,12.07-11,25.09-32.58,25.09-22.55,0-34.15-15.6-34.15-37.38,0-21.4,13.05-38.44,35.11-38.44,24.43,0,31.22,17.53,31.62,25.73H479.67c-1.24-5.9-4.58-10-12.42-10-9.17,0-14.36,8-14.36,22.09,0,15.43,5.5,22.46,14.28,22.46,6.89,0,10.59-4.07,12.38-9.52Z" transform="translate(-36.71 -176.5)"/><path class="cls-6" d="M526,330v38.64c3.18-4.65,9-10.15,20.74-10.15,13.51,0,24.26,7.93,24.26,27.42V432H551V388.88c0-9.34-3.33-14.3-11.71-14.3-11.11,0-13.29,8.22-13.29,19.31V431H506V330Z" transform="translate(-36.71 -176.5)"/><path class="cls-6" d="M646.57,395.52c0,21.74-13,37.73-35.77,37.73-22.28,0-35.28-15.9-35.28-37.35,0-22.17,13.41-37.83,36.22-37.83C632.89,358.07,646.57,373,646.57,395.52Zm-50.86.14c0,13.83,5.95,22,15.53,22s15.15-8.2,15.15-21.9c0-15-5.52-22.14-15.43-22.14C601.74,373.64,595.71,380.47,595.71,395.66Z" transform="translate(-36.71 -176.5)"/><path class="cls-6" d="M721,395.52c0,21.74-13,37.73-35.77,37.73-22.28,0-35.28-15.9-35.28-37.35,0-22.17,13.41-37.83,36.22-37.83C707.28,358.07,721,373,721,395.52Zm-50.86.14c0,13.83,5.95,22,15.53,22s15.14-8.2,15.14-21.9c0-15-5.51-22.14-15.42-22.14C676.12,373.64,670.1,380.47,670.1,395.66Z" transform="translate(-36.71 -176.5)"/><path class="cls-6" d="M728,431V330h20V431Z" transform="translate(-36.71 -176.5)"/><path class="cls-7" d="M133.74,339.5c1.58,7,6.58,10,14.61,10s11.44-3.16,11.44-8.24c0-5.65-3.35-8.1-15.22-10.86C125.69,326,121,319.12,121,309.75c0-12.09,9-20.3,25.48-20.3,18.42,0,25.76,9.9,26.75,20.05H158.13c-.72-4.27-3.08-8.91-12-8.91-6.08,0-9.76,2.52-9.76,7.44s2.95,6.79,14.16,9.39c20.18,4.75,24.6,12.26,24.6,22,0,12.67-9.58,21.36-27.92,21.36-17.62,0-26.89-8.67-28.55-21.32Z" transform="translate(-36.71 -176.5)"/><path class="cls-8" d="M193.18,339.5c1.58,7,6.58,10,14.61,10s11.43-3.16,11.43-8.24c0-5.65-3.34-8.1-15.21-10.86-18.88-4.43-23.55-11.3-23.55-20.67,0-12.09,9-20.3,25.47-20.3,18.43,0,25.76,9.9,26.76,20.05H217.57c-.72-4.27-3.08-8.91-12-8.91-6.09,0-9.76,2.52-9.76,7.44s2.95,6.79,14.16,9.39c20.18,4.75,24.6,12.26,24.6,22,0,12.67-9.58,21.36-27.93,21.36-17.61,0-26.88-8.67-28.54-21.32Z" transform="translate(-36.71 -176.5)"/></g></svg>