<svg xmlns="http://www.w3.org/2000/svg" viewBox="0 0 739.85 327.88"><defs><style>.cls-1{fill:#00d0b0;}.cls-2{fill:#91ffdb;}.cls-3{fill:#65c8d0;}.cls-4{fill:#069;stroke-width:9px;}.cls-4,.cls-6{stroke:#069;stroke-miterlimit:10;}.cls-5,.cls-6{fill:#18557f;}.cls-6{stroke-width:7px;}</style></defs><title>logo-safeschool-lateral</title><g id="logo-safeschool"><g id="fundo-2" data-name="fundo"><circle id="externo" class="cls-1" cx="163.94" cy="163.94" r="163.94"/><circle id="interno" class="cls-2" cx="163.94" cy="163.94" r="158.19"/></g><g id="virus"><polygon id="hastes-externas" class="cls-3" points="166.49 296.63 49.25 230.22 48.15 95.49 164.28 27.16 281.51 93.58 282.62 228.31 166.49 296.63"/><g id="hastes-internas"><line class="cls-4" x1="164.18" y1="27.16" x2="166.39" y2="296.63"/><line class="cls-4" x1="48.24" y1="95.37" x2="282.52" y2="228.31"/><line class="cls-4" x1="281.29" y1="93.5" x2="49.16" y2="230.22"/></g><g id="circulos"><circle class="cls-5" cx="279.72" cy="228.84" r="15.89"/><circle class="cls-5" cx="47.97" cy="96.65" r="24.03"/><circle class="cls-5" cx="163.96" cy="293.6" r="23.95"/><circle class="cls-5" cx="47.97" cy="229.4" r="12.55"/><circle class="cls-5" cx="164.42" cy="27.33" r="17"/><circle class="cls-5" cx="279.72" cy="93.06" r="24.22"/></g><path id="nucleo" class="cls-6" d="M183.28,422.63l61.86-35.72a20.36,20.36,0,0,0,10.19-17.64V297.85a20.38,20.38,0,0,0-10.19-17.64l-61.86-35.72a20.36,20.36,0,0,0-20.37,0l-61.85,35.72a20.36,20.36,0,0,0-10.19,17.64v71.42a20.34,20.34,0,0,0,10.19,17.64l61.85,35.72A20.36,20.36,0,0,0,183.28,422.63Z" transform="translate(-7.72 -171.66)"/></g><path class="cls-2" d="M371.51,294c2.18,9.61,9.08,13.82,20.15,13.82s15.77-4.36,15.77-11.36c0-7.79-4.61-11.17-21-15-26-6.11-32.48-15.58-32.48-28.5,0-16.68,12.48-28,35.13-28,25.41,0,35.53,13.66,36.9,27.66H405.15c-1-5.89-4.25-12.29-16.59-12.29-8.4,0-13.46,3.47-13.46,10.27,0,6.65,4.06,9.35,19.52,12.93,27.83,6.56,33.93,16.91,33.93,30.41,0,17.47-13.22,29.45-38.51,29.45-24.29,0-37.08-11.95-39.38-29.4Z" transform="translate(-7.72 -171.66)"/><path class="cls-2" d="M495.25,303.53c0,6.84.55,16.83,1,18.56h-19a29.48,29.48,0,0,1-1-7c-2.6,4-7.49,8.69-20.19,8.69-17.32,0-24.63-11.39-24.63-22.53,0-16.37,13.14-23.92,34.2-23.92h10.26v-4.39c0-5.11-1.84-10.13-11.07-10.13-8.39,0-10.23,3.57-11.15,8.77H434.72c1.08-12.77,9-23.1,30.81-23,19.25.13,29.72,7.64,29.72,24.74Zm-19.39-14.14h-8.1c-12,0-16.43,3.65-16.43,10.58,0,5.2,3.19,9.58,10.34,9.58,12.64,0,14.19-8.79,14.19-18.28Z" transform="translate(-7.72 -171.66)"/><path class="cls-2" d="M508.14,322.09V265.2H497.67V250.25h10.47v-6.31c0-14.84,7.36-24.55,22.91-24.55a40.8,40.8,0,0,1,9.24.85v15.7a25.58,25.58,0,0,0-4.19-.34c-5.87,0-8.07,2.16-8.07,9.84v4.81h12.56V265.2H528v56.89Z" transform="translate(-7.72 -171.66)"/><path class="cls-2" d="M558.64,290.42c0,9,4.51,17.77,14.42,17.77,8.28,0,10.64-3.32,12.53-7.67H605.5c-2.55,8.79-10.4,23.24-33,23.24-23.66,0-33.92-17.7-33.92-36.55,0-22.53,11.56-38.63,34.64-38.63,24.67,0,33.06,17.85,33.06,35.79a44.24,44.24,0,0,1-.26,6.05Zm27.74-12.21c-.14-8.37-3.48-15.41-13.17-15.41-9.53,0-13.36,6.58-14.16,15.41Z" transform="translate(-7.72 -171.66)"/><path class="cls-1" d="M371.51,403.53c2.18,9.61,9.08,13.82,20.15,13.82S407.43,413,407.43,406c0-7.79-4.61-11.17-21-15-26-6.11-32.48-15.59-32.48-28.5,0-16.68,12.48-28,35.13-28,25.41,0,35.53,13.66,36.9,27.66H405.15c-1-5.89-4.25-12.29-16.59-12.29-8.4,0-13.46,3.47-13.46,10.26s4.06,9.36,19.52,12.94c27.83,6.56,33.93,16.91,33.93,30.41,0,17.47-13.22,29.45-38.51,29.45-24.29,0-37.08-11.95-39.38-29.4Z" transform="translate(-7.72 -171.66)"/><path class="cls-1" d="M499,408.37c-2.47,12-10.89,24.88-32.3,24.88-22.36,0-33.86-15.48-33.86-37.07,0-21.21,12.95-38.11,34.82-38.11,24.22,0,30.95,17.38,31.34,25.51H479.55c-1.22-5.85-4.54-9.94-12.31-9.94-9.09,0-14.24,8-14.24,21.9,0,15.29,5.45,22.26,14.16,22.26,6.83,0,10.5-4,12.27-9.43Z" transform="translate(-7.72 -171.66)"/><path class="cls-1" d="M524.12,330.27v38c3.15-4.65,9-10.15,20.58-10.15,13.4,0,24.07,7.93,24.07,27.42v46.09H549V388.46c0-9.34-3.32-14.3-11.66-14.3-11.05,0-13.22,8.22-13.22,19.31v38.11H504.23V330.27Z" transform="translate(-7.72 -171.66)"/><path class="cls-1" d="M646.57,395.52c0,21.74-13,37.73-35.77,37.73-22.28,0-35.28-15.9-35.28-37.35,0-22.17,13.41-37.83,36.22-37.83C632.89,358.07,646.57,373,646.57,395.52Zm-50.86.14c0,13.83,5.95,22,15.53,22s15.15-8.2,15.15-21.9c0-15-5.52-22.14-15.43-22.14C601.74,373.64,595.71,380.47,595.71,395.66Z" transform="translate(-7.72 -171.66)"/><path class="cls-1" d="M721,395.52c0,21.74-13,37.73-35.77,37.73-22.28,0-35.28-15.9-35.28-37.35,0-22.17,13.41-37.83,36.22-37.83C707.28,358.07,721,373,721,395.52Zm-50.86.14c0,13.83,5.95,22,15.53,22s15.14-8.2,15.14-21.9c0-15-5.51-22.14-15.42-22.14C676.12,373.64,670.1,380.47,670.1,395.66Z" transform="translate(-7.72 -171.66)"/><path class="cls-1" d="M727.67,431.58V330.27h19.9V431.58Z" transform="translate(-7.72 -171.66)"/><path class="cls-2" d="M129.08,345.25c1.58,6.94,6.56,10,14.56,10S155,352.08,155,347c0-5.62-3.34-8.06-15.15-10.81-18.81-4.42-23.46-11.26-23.46-20.59,0-12,9-20.22,25.37-20.22,18.35,0,25.66,9.86,26.65,20H153.38c-.72-4.25-3.07-8.87-12-8.87-6.07,0-9.73,2.5-9.73,7.41s2.94,6.75,14.1,9.34c20.1,4.74,24.51,12.22,24.51,22,0,12.62-9.55,21.27-27.81,21.27-17.55,0-26.78-8.63-28.44-21.23Z" transform="translate(-7.72 -171.66)"/><path class="cls-1" d="M188.52,345.25c1.58,6.94,6.56,10,14.56,10s11.38-3.15,11.38-8.21c0-5.62-3.33-8.06-15.15-10.81-18.8-4.42-23.45-11.26-23.45-20.59,0-12,9-20.22,25.37-20.22,18.35,0,25.65,9.86,26.65,20H212.82c-.72-4.25-3.07-8.87-12-8.87-6.07,0-9.73,2.5-9.73,7.41s2.94,6.75,14.1,9.34c20.1,4.74,24.51,12.22,24.51,22,0,12.62-9.55,21.27-27.82,21.27-17.54,0-26.77-8.63-28.43-21.23Z" transform="translate(-7.72 -171.66)"/></g></svg>